# xmcd
#
# Track frame offsets:
#	300
#	15448
#	31891
#	46808
#	64157
#	81299
#	85112
#	111777
#	129559
#	146101
#	162424
#	177787
#	189382
#	204965
#
# Disc length: 3055 seconds
#
# Revision: 0
# Processed by: cddbd v1.4PL0 Copyright (c) Steve Scherf et al.
# Submitted via: audiograbber 1.82.02
#
DISCID=b40beb0e
DTITLE=Sektion Kuchikäschtli - Dorfgschichta
DYEAR=2002
DGENRE=
TTITLE0=Kuchikäschtlihiphop
TTITLE1=Stimmgabla
TTITLE2=Klartext
TTITLE3=Swissdate Mit Toni Lonoce Und Sulaya
TTITLE4=Ächta Räp
TTITLE5=Nöchschta Track
TTITLE6=Dr. Falschi
TTITLE7=Raimlischiaber
TTITLE8=Toni Lonoce Mit Toni Lonoce
TTITLE9=Monolog
TTITLE10=Gschlächtsstyle
TTITLE11=Coming Out
TTITLE12=Gaschtreferat Mit Taz Und M.a.r.c.
TTITLE13=Stohbliiba
EXTD=
EXTT0=
EXTT1=
EXTT2=
EXTT3=
EXTT4=
EXTT5=
EXTT6=
EXTT7=
EXTT8=
EXTT9=
EXTT10=
EXTT11=
EXTT12=
EXTT13=
PLAYORDER=
